<svg width="27" height="27" viewBox="0 0 27 27" fill="none" xmlns="http://www.w3.org/2000/svg">
<path d="M19.75 1H7.25C3.79822 1 1 3.79822 1 7.25V19.75C1 23.2018 3.79822 26 7.25 26H19.75C23.2018 26 26 23.2018 26 19.75V7.25C26 3.79822 23.2018 1 19.75 1Z" stroke="#AA9AE9" stroke-width="2" stroke-linecap="round" stroke-linejoin="round"/>
<path d="M18.5 12.7124C18.6543 13.7527 18.4766 14.8152 17.9922 15.7487C17.5078 16.6822 16.7414 17.4392 15.802 17.912C14.8626 18.3848 13.7981 18.5494 12.7597 18.3823C11.7214 18.2152 10.7622 17.725 10.0185 16.9813C9.2749 16.2377 8.78467 15.2785 8.61758 14.2402C8.4505 13.2018 8.61508 12.1373 9.08791 11.1979C9.56073 10.2585 10.3177 9.49206 11.2512 9.00769C12.1847 8.52332 13.2472 8.34562 14.2875 8.49989C15.3487 8.65724 16.3311 9.15172 17.0896 9.91027C17.8482 10.6688 18.3426 11.6512 18.5 12.7124Z" stroke="#AA9AE9" stroke-width="2" stroke-linecap="round" stroke-linejoin="round"/>
<path d="M20.375 6.625H20.388" stroke="#AA9AE9" stroke-width="2" stroke-linecap="round" stroke-linejoin="round"/>
</svg>
