<svg width="31" height="27" viewBox="0 0 31 27" fill="none" xmlns="http://www.w3.org/2000/svg">
<path d="M30 1.01401C28.7377 1.95512 27.3401 2.67491 25.8609 3.14568C25.067 2.18087 24.0119 1.49704 22.8384 1.18667C21.6648 0.876302 20.4293 0.954373 19.2991 1.41032C18.1689 1.86628 17.1984 2.67811 16.5189 3.73602C15.8395 4.79394 15.4838 6.04689 15.5 7.32542V8.71867C13.1835 8.78216 10.888 8.23913 8.81815 7.13796C6.74825 6.03678 4.96815 4.41163 3.63636 2.40726C3.63636 2.40726 -1.63636 14.9465 10.2273 20.5195C7.51251 22.4672 4.27853 23.4438 1 23.306C12.8636 30.2722 27.3636 23.306 27.3636 7.28363C27.3624 6.89554 27.3271 6.50842 27.2582 6.12723C28.6035 4.72492 29.5529 2.9544 30 1.01401V1.01401Z" stroke="#AA9AE9" stroke-width="2" stroke-linecap="round" stroke-linejoin="round"/>
</svg>
