<svg width="55" height="55" viewBox="0 0 55 55" fill="none" xmlns="http://www.w3.org/2000/svg">
<path d="M14.5323 47.3709L15.4215 47.8233C19.127 50.0848 23.2768 51.1401 27.4267 51.1401C40.4693 51.1401 51.1404 40.2849 51.1404 27.0173C51.1404 20.6852 48.6207 14.5037 44.1745 9.98057C39.7282 5.45748 33.7996 2.89453 27.4267 2.89453C14.3842 2.89453 3.7129 13.7498 3.86121 27.1682C3.86121 31.6911 5.1951 36.0635 7.41818 39.8325L8.01097 40.7373L5.6398 49.6326L14.5323 47.3709Z" fill="#00E676" fill-opacity="0.8"/>
<path d="M47.0571 8.02701C41.9618 2.82441 34.9182 0 27.7247 0C12.4388 0 0.149959 12.3378 0.299702 27.3513C0.299702 32.1081 1.64847 36.7163 3.89656 40.8784L0 55L14.5367 51.2838C18.583 53.5136 23.0788 54.5542 27.575 54.5542C42.7111 54.5542 55 42.2162 55 27.2029C55 19.919 52.1523 13.0811 47.0571 8.02701ZM27.7247 49.9461C23.6784 49.9461 19.6321 48.9058 16.1852 46.8247L15.2861 46.3787L6.5941 48.6083L8.84197 40.1355L8.24257 39.2435C1.64847 28.6895 4.79567 14.7162 15.5858 8.17554C26.376 1.63511 40.3133 4.7568 46.9074 15.4595C53.5013 26.1622 50.3541 39.9865 39.5641 46.5272C36.117 48.7568 31.921 49.9459 27.7247 49.9459V49.9461ZM40.9127 33.4463L39.2642 32.703C39.2642 32.703 36.8666 31.6625 35.3679 30.9192C35.2179 30.9192 35.0682 30.7704 34.9182 30.7704C34.4686 30.7704 34.1689 30.9192 33.8692 31.0679C33.8692 31.0679 33.7194 31.2164 31.6213 33.5948C31.4713 33.8921 31.1716 34.0409 30.8719 34.0409H30.722C30.5722 34.0409 30.2725 33.8921 30.1226 33.7436L29.3732 33.4463C27.7247 32.703 26.2262 31.811 25.0272 30.6219C24.7275 30.3246 24.2778 30.0274 23.9781 29.7301C22.9291 28.6895 21.88 27.5002 21.1308 26.1624L20.9809 25.8651C20.8311 25.7164 20.8311 25.5678 20.6812 25.2706C20.6812 24.9733 20.6812 24.676 20.8311 24.5273C20.8311 24.5273 21.4305 23.784 21.88 23.3382C22.1799 23.0407 22.3297 22.5949 22.6294 22.2976C22.9291 21.8516 23.079 21.257 22.9291 20.811C22.7793 20.0677 20.9809 16.0542 20.5314 15.1624C20.2315 14.7164 19.932 14.5679 19.4824 14.4191H17.8339C17.534 14.4191 17.2345 14.5679 16.9346 14.5679L16.7846 14.7164C16.4849 14.8651 16.1852 15.1624 15.8855 15.3109C15.5858 15.6084 15.4359 15.9055 15.1362 16.203C14.0871 17.5408 13.4877 19.1759 13.4877 20.811C13.4877 22.0001 13.7874 23.1894 14.237 24.23L14.387 24.676C15.7358 27.5002 17.534 30.0274 19.932 32.257L20.5314 32.8516C20.9809 33.2976 21.4305 33.5948 21.7302 34.0406C24.8774 36.7165 28.4741 38.6489 32.5204 39.6895C32.9701 39.838 33.5695 39.838 34.0191 39.9867H35.5176C36.267 39.9867 37.1661 39.6895 37.7657 39.3922C38.2152 39.0949 38.5149 39.0949 38.8146 38.7977L39.1145 38.5002C39.4142 38.2029 39.7139 38.0544 40.0136 37.7571C40.3133 37.4598 40.613 37.1625 40.763 36.8651C41.0627 36.2705 41.2124 35.5272 41.3624 34.7841V33.7436C41.3624 33.7436 41.2124 33.5948 40.9127 33.4463Z" fill="white"/>
</svg>
